<svg version="1.1" id="Layer_1" xmlns="http://www.w3.org/2000/svg" xmlns:xlink="http://www.w3.org/1999/xlink" viewBox="0 0 512 512">
<path d="M256,51.7c54.5,0,105.8,21.3,144.5,59.8c38.5,38.6,59.8,90,59.8,144.5S439,361.8,400.5,400.5c-38.6,38.5-90,59.8-144.5,59.8
	S150.2,439,111.5,400.5C73,361.8,51.7,310.5,51.7,256S73,150.2,111.5,111.5C150.2,73,201.5,51.7,256,51.7 M256,0
	C114.6,0,0,114.6,0,256s114.6,256,256,256s256-114.6,256-256S397.4,0,256,0z"/>
<path d="M281.8,384h-51.7V230.2h51.7V384z M281.8,179.7h-51.7V128h51.7V179.7z"/>
</svg>
