<svg xmlns="http://www.w3.org/2000/svg" viewBox="0 0 512 512">
<g><g><g><path d="M276.98 0.85L287.3 1.9L297.5 3.35L307.57 5.2L317.49 7.44L327.26 10.06L336.88 13.06L346.33 16.42L355.61 20.13L364.7 24.19L373.6 28.59L382.31 33.32L390.81 38.38L399.09 43.74L407.15 49.42L414.98 55.39L422.56 61.65L429.9 68.2L436.98 75.01L443.8 82.1L450.34 89.43L456.61 97.02L462.58 104.85L468.25 112.91L473.62 121.19L478.68 129.69L483.41 138.39L487.81 147.3L491.87 156.39L495.58 165.67L498.94 175.12L501.93 184.74L504.55 194.51L506.8 204.43L508.65 214.5L510.1 224.69L511.15 235.01L511.79 245.45L512 256L511.79 266.54L511.15 276.98L510.1 287.3L508.65 297.5L506.8 307.56L504.55 317.49L501.93 327.26L498.94 336.88L495.58 346.33L491.87 355.6L487.81 364.7L483.41 373.6L478.68 382.31L473.62 390.81L468.25 399.09L462.58 407.15L456.61 414.97L450.34 422.56L443.8 429.9L436.98 436.98L429.9 443.8L422.56 450.34L414.98 456.6L407.15 462.58L399.09 468.25L390.81 473.62L382.31 478.67L373.6 483.41L364.7 487.81L355.61 491.87L346.33 495.58L336.88 498.94L327.26 501.93L317.49 504.55L307.57 506.79L297.5 508.64L287.3 510.1L276.98 511.15L266.55 511.78L256 512L245.45 511.78L235.02 511.15L224.7 510.1L214.5 508.64L204.43 506.79L194.51 504.55L184.74 501.93L175.12 498.94L165.67 495.58L156.39 491.87L147.3 487.81L138.4 483.41L129.69 478.67L121.19 473.62L112.91 468.25L104.85 462.58L97.02 456.6L89.44 450.34L82.1 443.8L75.02 436.98L68.2 429.9L61.66 422.56L55.39 414.97L49.42 407.15L43.75 399.09L38.38 390.81L33.32 382.31L28.59 373.6L24.19 364.7L20.13 355.6L16.42 346.33L13.06 336.88L10.07 327.26L7.45 317.49L5.2 307.56L3.35 297.5L1.9 287.3L0.85 276.98L0.21 266.54L0 256L0.21 245.45L0.85 235.01L1.9 224.69L3.35 214.5L5.2 204.43L7.45 194.51L10.07 184.74L13.06 175.12L16.42 165.67L20.13 156.39L24.19 147.3L28.59 138.39L33.32 129.69L38.38 121.19L43.75 112.91L49.42 104.85L55.39 97.02L61.66 89.43L68.2 82.1L75.02 75.01L82.1 68.2L89.44 61.65L97.02 55.39L104.85 49.42L112.91 43.74L121.19 38.38L129.69 33.32L138.4 28.59L147.3 24.19L156.39 20.13L165.67 16.42L175.12 13.06L184.74 10.06L194.51 7.44L204.43 5.2L214.5 3.35L224.7 1.9L235.02 0.85L245.45 0.21L256 0L266.55 0.21L276.98 0.85ZM238.71 45.7L230.2 46.56L221.8 47.76L213.5 49.29L205.32 51.13L197.27 53.3L189.34 55.76L181.55 58.53L173.91 61.59L166.41 64.94L159.07 68.56L151.9 72.46L144.89 76.63L138.07 81.05L131.42 85.73L124.97 90.65L118.72 95.82L112.67 101.21L106.83 106.83L101.22 112.66L95.82 118.71L90.66 124.97L85.74 131.42L81.06 138.06L76.64 144.89L72.47 151.89L68.57 159.07L64.94 166.4L61.6 173.9L58.54 181.55L55.77 189.34L53.3 197.26L51.14 205.32L49.29 213.5L47.77 221.79L46.57 230.2L45.7 238.7L45.18 247.31L45 256L45.18 264.69L45.7 273.29L46.57 281.8L47.77 290.2L49.29 298.5L51.14 306.68L53.3 314.73L55.77 322.66L58.54 330.45L61.6 338.1L64.94 345.59L68.57 352.93L72.47 360.11L76.64 367.11L81.06 373.94L85.74 380.58L90.66 387.03L95.82 393.28L101.22 399.33L106.83 405.17L112.67 410.79L118.72 416.18L124.97 421.34L131.42 426.26L138.07 430.94L144.89 435.37L151.9 439.53L159.07 443.43L166.41 447.06L173.91 450.41L181.55 453.47L189.34 456.23L197.27 458.7L205.32 460.86L213.5 462.71L221.8 464.23L230.2 465.43L238.71 466.3L247.31 466.82L256 467L264.7 466.82L273.3 466.3L281.81 465.43L290.21 464.23L298.51 462.71L306.69 460.86L314.74 458.7L322.67 456.23L330.46 453.47L338.1 450.41L345.6 447.06L352.94 443.43L360.11 439.53L367.12 435.37L373.94 430.94L380.59 426.26L387.04 421.34L393.29 416.18L399.34 410.79L405.18 405.17L410.79 399.33L416.19 393.28L421.35 387.03L426.27 380.58L430.95 373.94L435.37 367.11L439.54 360.11L443.44 352.93L447.07 345.59L450.41 338.1L453.47 330.45L456.24 322.66L458.71 314.73L460.87 306.68L462.71 298.5L464.24 290.2L465.44 281.8L466.3 273.29L466.83 264.69L467 256L466.83 247.31L466.3 238.7L465.44 230.2L464.24 221.79L462.71 213.5L460.87 205.32L458.71 197.26L456.24 189.34L453.47 181.55L450.41 173.9L447.07 166.4L443.44 159.07L439.54 151.89L435.37 144.89L430.95 138.06L426.27 131.42L421.35 124.97L416.19 118.71L410.79 112.66L405.18 106.83L399.34 101.21L393.29 95.82L387.04 90.65L380.59 85.73L373.94 81.05L367.12 76.63L360.11 72.46L352.94 68.56L345.6 64.94L338.1 61.59L330.46 58.53L322.67 55.76L314.74 53.3L306.69 51.13L298.51 49.29L290.21 47.76L281.81 46.56L273.3 45.7L264.7 45.17L256 45L247.31 45.17L238.71 45.7Z"></path></g><g><path d="M263.54 164.3L267.25 164.68L270.92 165.2L274.53 165.87L278.1 166.67L281.61 167.62L285.07 168.69L288.46 169.9L291.8 171.23L295.07 172.69L298.27 174.27L301.39 175.97L304.45 177.79L307.43 179.72L310.32 181.76L313.13 183.9L315.86 186.16L318.5 188.51L321.04 190.96L323.49 193.5L325.84 196.14L328.1 198.87L330.24 201.68L332.28 204.57L334.21 207.55L336.03 210.61L337.73 213.73L339.31 216.93L340.77 220.2L342.1 223.54L343.31 226.93L344.38 230.39L345.33 233.9L346.13 237.47L346.8 241.08L347.32 244.75L347.7 248.46L347.93 252.21L348 256L347.93 259.79L347.7 263.54L347.32 267.25L346.8 270.91L346.13 274.53L345.33 278.1L344.38 281.61L343.31 285.06L342.1 288.46L340.77 291.79L339.31 295.06L337.73 298.26L336.03 301.39L334.21 304.44L332.28 307.42L330.24 310.32L328.1 313.13L325.84 315.86L323.49 318.49L321.04 321.04L318.5 323.49L315.86 325.84L313.13 328.09L310.32 330.24L307.43 332.28L304.45 334.21L301.39 336.02L298.27 337.72L295.07 339.3L291.8 340.76L288.46 342.1L285.07 343.3L281.61 344.38L278.1 345.32L274.53 346.13L270.92 346.79L267.25 347.32L263.54 347.69L259.79 347.92L256 348L252.21 347.92L248.46 347.69L244.75 347.32L241.09 346.79L237.47 346.13L233.9 345.32L230.39 344.38L226.94 343.3L223.54 342.1L220.21 340.76L216.94 339.3L213.74 337.72L210.61 336.02L207.56 334.21L204.58 332.28L201.68 330.24L198.87 328.09L196.14 325.84L193.51 323.49L190.96 321.04L188.51 318.49L186.16 315.86L183.91 313.13L181.76 310.32L179.72 307.42L177.79 304.44L175.98 301.39L174.28 298.26L172.7 295.06L171.24 291.79L169.9 288.46L168.7 285.06L167.62 281.61L166.68 278.1L165.87 274.53L165.21 270.91L164.68 267.25L164.31 263.54L164.08 259.79L164 256L164.08 252.21L164.31 248.46L164.68 244.75L165.21 241.08L165.87 237.47L166.68 233.9L167.62 230.39L168.7 226.93L169.9 223.54L171.24 220.2L172.7 216.93L174.28 213.73L175.98 210.61L177.79 207.55L179.72 204.57L181.76 201.68L183.91 198.87L186.16 196.14L188.51 193.5L190.96 190.96L193.51 188.51L196.14 186.16L198.87 183.9L201.68 181.76L204.58 179.72L207.56 177.79L210.61 175.97L213.74 174.27L216.94 172.69L220.21 171.23L223.54 169.9L226.94 168.69L230.39 167.62L233.9 166.67L237.47 165.87L241.09 165.2L244.75 164.68L248.46 164.3L252.21 164.07L256 164L259.79 164.07L263.54 164.3ZM252.14 209.16L250.25 209.35L248.38 209.62L246.53 209.96L244.71 210.37L242.91 210.85L241.15 211.4L239.41 212.01L237.71 212.7L236.04 213.44L234.4 214.25L232.81 215.12L231.25 216.05L229.72 217.03L228.24 218.07L226.81 219.17L225.42 220.32L224.07 221.52L222.77 222.77L221.52 224.07L220.31 225.42L219.16 226.81L218.07 228.25L217.03 229.73L216.04 231.25L215.11 232.81L214.24 234.41L213.44 236.04L212.69 237.71L212.01 239.42L211.39 241.15L210.84 242.92L210.36 244.71L209.95 246.53L209.61 248.38L209.34 250.25L209.15 252.15L209.03 254.06L209 256L209.03 257.94L209.15 259.85L209.34 261.75L209.61 263.62L209.95 265.47L210.36 267.29L210.84 269.08L211.39 270.85L212.01 272.58L212.69 274.29L213.44 275.96L214.24 277.59L215.11 279.19L216.04 280.75L217.03 282.27L218.07 283.75L219.16 285.19L220.31 286.58L221.52 287.93L222.77 289.23L224.07 290.48L225.42 291.68L226.81 292.83L228.24 293.93L229.72 294.97L231.25 295.95L232.81 296.88L234.4 297.75L236.04 298.56L237.71 299.3L239.41 299.99L241.15 300.6L242.91 301.15L244.71 301.63L246.53 302.04L248.38 302.38L250.25 302.65L252.14 302.84L254.06 302.96L256 303L257.93 302.96L259.85 302.84L261.74 302.65L263.61 302.38L265.46 302.04L267.28 301.63L269.08 301.15L270.84 300.6L272.58 299.99L274.28 299.3L275.95 298.56L277.59 297.75L279.18 296.88L280.74 295.95L282.27 294.97L283.75 293.93L285.18 292.83L286.58 291.68L287.92 290.48L289.22 289.23L290.47 287.93L291.68 286.58L292.83 285.19L293.92 283.75L294.96 282.27L295.95 280.75L296.88 279.19L297.75 277.59L298.55 275.96L299.3 274.29L299.98 272.58L300.6 270.85L301.15 269.08L301.63 267.29L302.04 265.47L302.38 263.62L302.65 261.75L302.84 259.85L302.96 257.94L303 256L302.96 254.06L302.84 252.15L302.65 250.25L302.38 248.38L302.04 246.53L301.63 244.71L301.15 242.92L300.6 241.15L299.98 239.42L299.3 237.71L298.55 236.04L297.75 234.41L296.88 232.81L295.95 231.25L294.96 229.73L293.92 228.25L292.83 226.81L291.68 225.42L290.47 224.07L289.22 222.77L287.92 221.52L286.58 220.32L285.18 219.17L283.75 218.07L282.27 217.03L280.74 216.05L279.18 215.12L277.59 214.25L275.95 213.44L274.28 212.7L272.58 212.01L270.84 211.4L269.08 210.85L267.28 210.37L265.46 209.96L263.61 209.62L261.74 209.35L259.85 209.16L257.93 209.04L256 209L254.06 209.04L252.14 209.16Z"></path></g><g><path d="M233.5 18.11L278.5 18.11L278.5 202.43L233.5 202.43L233.5 18.11Z"></path></g><g><path d="M475.95 357.01L453.45 395.98L305.83 310.75L328.33 271.78L475.95 357.01Z"></path></g><g><path d="M63.77 392.96L41.27 353.99L188.89 268.76L211.39 307.73L63.77 392.96Z"></path></g></g></g></svg>