<svg version="1.1" xmlns="http://www.w3.org/2000/svg" viewBox="0 0 512 512" width="512" height="512"><g><g><g><path d="M254.26 0.78L263.74 1.74L273.1 3.08L282.34 4.78L291.44 6.83L300.42 9.24L309.24 11.99L317.92 15.07L326.44 18.48L334.78 22.21L342.96 26.25L350.95 30.59L358.75 35.23L366.35 40.16L373.75 45.37L380.94 50.85L387.9 56.6L394.64 62.6L401.14 68.86L407.4 75.36L413.4 82.1L419.15 89.06L424.63 96.25L429.84 103.65L434.77 111.25L439.41 119.05L443.75 127.04L447.79 135.22L451.52 143.56L454.93 152.08L458.01 160.76L460.76 169.58L463.17 178.56L465.22 187.66L466.92 196.9L468.26 206.26L469.22 215.74L469.8 225.32L470 235L469.8 244.68L469.22 254.26L468.26 263.74L466.92 273.1L465.22 282.34L463.17 291.44L460.76 300.42L458.01 309.24L454.93 317.92L451.52 326.44L447.79 334.78L443.75 342.96L439.41 350.95L434.77 358.75L429.84 366.35L424.63 373.75L419.15 380.94L413.4 387.9L407.4 394.64L401.14 401.14L394.64 407.4L387.9 413.4L380.94 419.15L373.75 424.63L366.35 429.84L358.75 434.77L350.95 439.41L342.96 443.75L334.78 447.79L326.44 451.52L317.92 454.93L309.24 458.01L300.42 460.76L291.44 463.17L282.34 465.22L273.1 466.92L263.74 468.26L254.26 469.22L244.68 469.8L235 470L225.32 469.8L215.74 469.22L206.26 468.26L196.9 466.92L187.66 465.22L178.56 463.17L169.58 460.76L160.76 458.01L152.08 454.93L143.56 451.52L135.22 447.79L127.04 443.75L119.05 439.41L111.25 434.77L103.65 429.84L96.25 424.63L89.06 419.15L82.1 413.4L75.36 407.4L68.86 401.14L62.6 394.64L56.6 387.9L50.85 380.94L45.37 373.75L40.16 366.35L35.23 358.75L30.59 350.95L26.25 342.96L22.21 334.78L18.48 326.44L15.07 317.92L11.99 309.24L9.24 300.42L6.83 291.44L4.78 282.34L3.08 273.1L1.74 263.74L0.78 254.26L0.2 244.68L0 235L0.2 225.32L0.78 215.74L1.74 206.26L3.08 196.9L4.78 187.66L6.83 178.56L9.24 169.58L11.99 160.76L15.07 152.08L18.48 143.56L22.21 135.22L26.25 127.04L30.59 119.05L35.23 111.25L40.16 103.65L45.37 96.25L50.85 89.06L56.6 82.1L62.6 75.36L68.86 68.86L75.36 62.6L82.1 56.6L89.06 50.85L96.25 45.37L103.65 40.16L111.25 35.23L119.05 30.59L127.04 26.25L135.22 22.21L143.56 18.48L152.08 15.07L160.76 11.99L169.58 9.24L178.56 6.83L187.66 4.78L196.9 3.08L206.26 1.74L215.74 0.78L225.32 0.2L235 0L244.68 0.2L254.26 0.78ZM219.43 45.63L211.77 46.41L204.2 47.49L196.73 48.86L189.36 50.53L182.11 52.47L174.97 54.69L167.96 57.19L161.07 59.94L154.32 62.95L147.72 66.22L141.25 69.73L134.95 73.48L128.8 77.47L122.82 81.68L117.01 86.11L111.38 90.76L105.93 95.62L100.68 100.68L95.62 105.93L90.76 111.38L86.11 117.01L81.68 122.82L77.47 128.8L73.48 134.95L69.73 141.25L66.22 147.72L62.95 154.32L59.94 161.07L57.19 167.96L54.69 174.97L52.47 182.11L50.53 189.36L48.86 196.73L47.49 204.2L46.41 211.77L45.63 219.43L45.16 227.17L45 235L45.16 242.83L45.63 250.57L46.41 258.23L47.49 265.8L48.86 273.27L50.53 280.64L52.47 287.89L54.69 295.03L57.19 302.04L59.94 308.93L62.95 315.68L66.22 322.28L69.73 328.75L73.48 335.05L77.47 341.2L81.68 347.18L86.11 352.99L90.76 358.62L95.62 364.07L100.68 369.32L105.93 374.38L111.38 379.24L117.01 383.89L122.82 388.32L128.8 392.53L134.95 396.52L141.25 400.27L147.72 403.78L154.32 407.05L161.07 410.06L167.96 412.81L174.97 415.31L182.11 417.53L189.36 419.47L196.73 421.14L204.2 422.51L211.77 423.59L219.43 424.37L227.17 424.84L235 425L242.83 424.84L250.57 424.37L258.23 423.59L265.8 422.51L273.27 421.14L280.64 419.47L287.89 417.53L295.03 415.31L302.04 412.81L308.93 410.06L315.68 407.05L322.28 403.78L328.75 400.27L335.05 396.52L341.2 392.53L347.18 388.32L352.99 383.89L358.62 379.24L364.07 374.38L369.32 369.32L374.38 364.07L379.24 358.62L383.89 352.99L388.32 347.18L392.53 341.2L396.52 335.05L400.27 328.75L403.78 322.28L407.05 315.68L410.06 308.93L412.81 302.04L415.31 295.03L417.53 287.89L419.47 280.64L421.14 273.27L422.51 265.8L423.59 258.23L424.37 250.57L424.84 242.83L425 235L424.84 227.17L424.37 219.43L423.59 211.77L422.51 204.2L421.14 196.73L419.47 189.36L417.53 182.11L415.31 174.97L412.81 167.96L410.06 161.07L407.05 154.32L403.78 147.72L400.27 141.25L396.52 134.95L392.53 128.8L388.32 122.82L383.89 117.01L379.24 111.38L374.38 105.93L369.32 100.68L364.07 95.62L358.62 90.76L352.99 86.11L347.18 81.68L341.2 77.47L335.05 73.48L328.75 69.73L322.28 66.22L315.68 62.95L308.93 59.94L302.04 57.19L295.03 54.69L287.89 52.47L280.64 50.53L273.27 48.86L265.8 47.49L258.23 46.41L250.57 45.63L242.83 45.16L235 45L227.17 45.16L219.43 45.63Z"></path></g><g><path d="M399.91 368.09L511.91 480.09L480.09 511.91L368.09 399.91L399.91 368.09Z"></path></g></g></g></svg>