<svg version="1.1" xmlns="http://www.w3.org/2000/svg" viewBox="0 0 512 512" width="512" height="512"><g><g><g><path d="M275.34 276.78L284.86 277.75L294.26 279.09L303.54 280.8L312.69 282.86L321.7 285.28L330.56 288.04L339.27 291.14L347.83 294.56L356.21 298.3L364.42 302.36L372.44 306.72L380.28 311.38L387.91 316.33L395.34 321.56L402.56 327.07L409.55 332.84L416.32 338.87L422.84 345.16L429.13 351.68L435.16 358.45L440.93 365.44L446.44 372.66L451.67 380.09L456.62 387.72L461.28 395.56L465.64 403.58L469.7 411.79L473.44 420.17L476.86 428.73L479.96 437.44L482.72 446.3L485.14 455.31L487.2 464.46L488.91 473.74L490.25 483.14L491.22 492.66L491.8 502.28L492 512L20 512L20.2 502.28L20.78 492.66L21.75 483.14L23.09 473.74L24.8 464.46L26.86 455.31L29.28 446.3L32.04 437.44L35.14 428.73L38.56 420.17L42.3 411.79L46.36 403.58L50.72 395.56L55.38 387.72L60.33 380.09L65.56 372.66L71.07 365.44L76.84 358.45L82.87 351.68L89.16 345.16L95.68 338.87L102.45 332.84L109.44 327.07L116.66 321.56L124.09 316.33L131.72 311.38L139.56 306.72L147.58 302.36L155.79 298.3L164.17 294.56L172.73 291.14L181.44 288.04L190.3 285.28L199.31 282.86L208.46 280.8L217.74 279.09L227.14 277.75L236.66 276.78L246.28 276.2L256 276L265.72 276.2L275.34 276.78ZM240.34 321.63L232.64 322.42L225.04 323.5L217.53 324.88L210.12 326.56L202.83 328.51L195.66 330.74L188.61 333.25L181.68 336.02L174.9 339.05L168.26 342.33L161.76 345.86L155.42 349.63L149.24 353.64L143.23 357.87L137.39 362.33L131.73 367L126.25 371.88L120.97 376.97L115.88 382.25L111 387.73L106.33 393.39L101.87 399.23L97.64 405.24L93.63 411.42L89.86 417.76L86.33 424.26L83.05 430.9L80.02 437.68L77.25 444.61L74.74 451.66L72.51 458.83L70.56 466.12L70.36 467L441.64 467L441.44 466.12L439.49 458.83L437.26 451.66L434.75 444.61L431.98 437.68L428.95 430.9L425.67 424.26L422.14 417.76L418.37 411.42L414.36 405.24L410.13 399.23L405.67 393.39L401 387.73L396.12 382.25L391.03 376.97L385.75 371.88L380.27 367L374.61 362.33L368.77 357.87L362.76 353.64L356.58 349.63L350.24 345.86L343.74 342.33L337.1 339.05L330.32 336.02L323.39 333.25L316.34 330.74L309.17 328.51L301.88 326.56L294.47 324.88L286.96 323.5L279.36 322.42L271.66 321.63L263.87 321.16L256 321L248.13 321.16L240.34 321.63Z"></path></g><g><path d="M266.82 0.44L272.14 0.98L277.4 1.73L282.59 2.68L287.71 3.84L292.74 5.19L297.7 6.73L302.58 8.47L307.36 10.38L312.05 12.47L316.64 14.74L321.13 17.18L325.51 19.79L329.78 22.56L333.94 25.48L337.97 28.56L341.88 31.79L345.67 35.17L349.32 38.68L352.83 42.33L356.21 46.12L359.44 50.03L362.52 54.06L365.44 58.22L368.21 62.49L370.82 66.87L373.26 71.36L375.53 75.95L377.62 80.64L379.53 85.42L381.27 90.3L382.81 95.26L384.16 100.29L385.32 105.41L386.27 110.6L387.02 115.86L387.56 121.18L387.89 126.56L388 132L387.89 137.44L387.56 142.82L387.02 148.14L386.27 153.4L385.32 158.59L384.16 163.71L382.81 168.74L381.27 173.7L379.53 178.58L377.62 183.36L375.53 188.05L373.26 192.64L370.82 197.13L368.21 201.51L365.44 205.78L362.52 209.94L359.44 213.97L356.21 217.88L352.83 221.67L349.32 225.32L345.67 228.83L341.88 232.21L337.97 235.44L333.94 238.52L329.78 241.44L325.51 244.21L321.13 246.82L316.64 249.26L312.05 251.53L307.36 253.62L302.58 255.53L297.7 257.27L292.74 258.81L287.71 260.16L282.59 261.32L277.4 262.27L272.14 263.02L266.82 263.56L261.44 263.89L256 264L250.56 263.89L245.18 263.56L239.86 263.02L234.6 262.27L229.41 261.32L224.29 260.16L219.26 258.81L214.3 257.27L209.42 255.53L204.64 253.62L199.95 251.53L195.36 249.26L190.87 246.82L186.49 244.21L182.22 241.44L178.06 238.52L174.03 235.44L170.12 232.21L166.33 228.83L162.68 225.32L159.17 221.67L155.79 217.88L152.56 213.97L149.48 209.94L146.56 205.78L143.79 201.51L141.18 197.13L138.74 192.64L136.47 188.05L134.38 183.36L132.47 178.58L130.73 173.7L129.19 168.74L127.84 163.71L126.68 158.59L125.73 153.4L124.98 148.14L124.44 142.82L124.11 137.44L124 132L124.11 126.56L124.44 121.18L124.98 115.86L125.73 110.6L126.68 105.41L127.84 100.29L129.19 95.26L130.73 90.3L132.47 85.42L134.38 80.64L136.47 75.95L138.74 71.36L141.18 66.87L143.79 62.49L146.56 58.22L149.48 54.06L152.56 50.03L155.79 46.12L159.17 42.33L162.68 38.68L166.33 35.17L170.12 31.79L174.03 28.56L178.06 25.48L182.22 22.56L186.49 19.79L190.87 17.18L195.36 14.74L199.95 12.47L204.64 10.38L209.42 8.47L214.3 6.73L219.26 5.19L224.29 3.84L229.41 2.68L234.6 1.73L239.86 0.98L245.18 0.44L250.56 0.11L256 0L261.44 0.11L266.82 0.44ZM248.87 45.29L245.36 45.65L241.9 46.14L238.48 46.77L235.1 47.53L231.78 48.42L228.51 49.44L225.3 50.58L222.15 51.84L219.06 53.22L216.03 54.72L213.07 56.32L210.19 58.04L207.37 59.87L204.63 61.8L201.97 63.82L199.39 65.95L196.9 68.18L194.49 70.49L192.18 72.9L189.95 75.39L187.82 77.97L185.8 80.63L183.87 83.37L182.04 86.19L180.32 89.07L178.72 92.03L177.22 95.06L175.84 98.15L174.58 101.3L173.44 104.51L172.42 107.78L171.53 111.1L170.77 114.48L170.14 117.9L169.65 121.36L169.29 124.87L169.07 128.42L169 132L169.07 135.58L169.29 139.13L169.65 142.64L170.14 146.1L170.77 149.52L171.53 152.9L172.42 156.22L173.44 159.49L174.58 162.7L175.84 165.85L177.22 168.94L178.72 171.97L180.32 174.93L182.04 177.81L183.87 180.63L185.8 183.37L187.82 186.03L189.95 188.61L192.18 191.1L194.49 193.51L196.9 195.82L199.39 198.05L201.97 200.18L204.63 202.2L207.37 204.13L210.19 205.96L213.07 207.68L216.03 209.28L219.06 210.78L222.15 212.16L225.3 213.42L228.51 214.56L231.78 215.58L235.1 216.47L238.48 217.23L241.9 217.86L245.36 218.35L248.87 218.71L252.42 218.93L256 219L259.58 218.93L263.13 218.71L266.64 218.35L270.1 217.86L273.52 217.23L276.9 216.47L280.22 215.58L283.49 214.56L286.7 213.42L289.85 212.16L292.94 210.78L295.97 209.28L298.93 207.68L301.81 205.96L304.63 204.13L307.37 202.2L310.03 200.18L312.61 198.05L315.1 195.82L317.51 193.51L319.82 191.1L322.05 188.61L324.18 186.03L326.2 183.37L328.13 180.63L329.96 177.81L331.68 174.93L333.28 171.97L334.78 168.94L336.16 165.85L337.42 162.7L338.56 159.49L339.58 156.22L340.47 152.9L341.23 149.52L341.86 146.1L342.35 142.64L342.71 139.13L342.93 135.58L343 132L342.93 128.42L342.71 124.87L342.35 121.36L341.86 117.9L341.23 114.48L340.47 111.1L339.58 107.78L338.56 104.51L337.42 101.3L336.16 98.15L334.78 95.06L333.28 92.03L331.68 89.07L329.96 86.19L328.13 83.37L326.2 80.63L324.18 77.97L322.05 75.39L319.82 72.9L317.51 70.49L315.1 68.18L312.61 65.95L310.03 63.82L307.37 61.8L304.63 59.87L301.81 58.04L298.93 56.32L295.97 54.72L292.94 53.22L289.85 51.84L286.7 50.58L283.49 49.44L280.22 48.42L276.9 47.53L273.52 46.77L270.1 46.14L266.64 45.65L263.13 45.29L259.58 45.07L256 45L252.42 45.07L248.87 45.29Z"></path></g></g></g></svg>